<?xml version="1.0" standalone="no"?>
<!DOCTYPE svg PUBLIC "-//W3C//DTD SVG 20010904//EN"
 "http://www.w3.org/TR/2001/REC-SVG-20010904/DTD/svg10.dtd">
<svg version="1.0" xmlns="http://www.w3.org/2000/svg"
 width="557.000000pt" height="557.000000pt" viewBox="0 0 557.000000 557.000000"
 preserveAspectRatio="xMidYMid meet">
<metadata>
Created by potrace 1.11, written by Peter Selinger 2001-2013
</metadata>
<g transform="translate(0.000000,557.000000) scale(0.100000,-0.100000)"
fill="#000000" stroke="none">
<path d="M2256 5389 c-8 -27 -25 -154 -30 -221 -3 -38 -10 -77 -16 -87 -5 -11
-10 -79 -10 -151 0 -115 -2 -131 -17 -137 -10 -4 -38 -20 -62 -36 -43 -30 -43
-30 -38 -80 5 -58 -2 -67 -100 -130 -136 -85 -286 -269 -344 -421 -11 -28 -24
-60 -29 -71 -19 -41 -62 -202 -70 -265 -39 -299 -37 -491 11 -780 13 -76 47
-218 59 -240 4 -9 11 -31 14 -50 8 -39 45 -137 82 -217 13 -29 29 -62 34 -75
5 -13 16 -32 22 -43 88 -140 123 -190 171 -244 31 -35 57 -66 57 -70 0 -3 -20
-19 -45 -34 -58 -37 -101 -88 -116 -135 -10 -36 -15 -39 -82 -61 -69 -22 -177
-72 -263 -121 l-40 -23 -60 36 c-287 176 -740 102 -1015 -165 -102 -100 -182
-241 -232 -413 -28 -99 -30 -313 -3 -402 l19 -62 637 -1 638 0 7 69 c7 74 2
178 -17 303 -6 43 -9 80 -6 83 10 11 109 -49 142 -86 44 -48 59 -119 55 -258
l-4 -106 1933 -3 1932 -2 0 517 0 518 -33 19 c-128 74 -257 127 -387 157 -73
17 -320 17 -390 0 -184 -44 -356 -136 -477 -257 -45 -46 -55 -44 -69 11 -13
52 -81 179 -111 206 -66 62 -167 106 -293 129 -36 7 -74 14 -85 16 -12 3 -29
23 -43 52 -36 75 -135 125 -297 153 -38 7 -74 16 -79 20 -5 5 9 31 31 62 80
105 138 243 169 402 26 133 29 212 14 445 -5 85 -14 256 -20 380 -6 124 -15
252 -21 285 -30 179 -41 228 -86 365 -41 126 -162 323 -239 390 -31 27 -122
90 -130 90 -2 0 -27 11 -56 25 -29 14 -81 30 -116 36 -64 11 -79 21 -115 73
-15 22 -25 26 -67 26 -42 0 -51 4 -69 29 -12 16 -21 38 -21 49 0 18 -17 66
-40 117 -12 26 -59 162 -69 200 -4 17 -13 39 -18 50 -6 11 -19 39 -28 62 -21
50 -62 94 -69 72z m69 -164 c12 -33 27 -73 33 -88 7 -16 12 -32 12 -37 0 -5 8
-23 17 -42 30 -61 33 -68 33 -83 0 -9 8 -35 19 -58 34 -76 34 -83 3 -118 -31
-35 -97 -52 -164 -42 -55 8 -63 36 -49 176 22 218 31 292 36 325 9 51 35 37
60 -33z m-269 -942 c18 -24 17 -63 -1 -106 -19 -47 -50 -67 -101 -67 -114 0
-128 122 -20 171 54 23 105 24 122 2z m-198 -272 c6 -41 -7 -68 -39 -82 -18
-7 -52 -29 -78 -49 -71 -55 -71 -55 -59 -13 22 82 61 135 116 160 38 16 56 12
60 -16z m902 -14 c124 -87 43 -288 -129 -321 -52 -10 -109 11 -157 57 -36 35
-46 52 -54 97 -11 60 2 154 23 167 42 26 279 26 317 0z m-605 -47 c34 -22 75
-93 75 -130 -1 -37 -33 -102 -68 -135 -78 -73 -202 -72 -274 2 -32 33 -33 36
-33 119 0 100 2 102 103 132 126 38 155 40 197 12z m-372 -480 l63 -31 16 -87
c26 -134 29 -168 18 -196 -13 -35 -39 -33 -92 7 -52 39 -83 93 -107 184 -20
74 -35 206 -24 217 4 3 19 -9 35 -28 16 -19 57 -49 91 -66z"/>
<path d="M2590 3891 c-24 -47 0 -92 39 -71 36 18 23 90 -16 90 -7 0 -17 -9
-23 -19z"/>
<path d="M2024 3836 c-14 -57 16 -95 51 -66 18 15 20 61 3 78 -20 20 -47 14
-54 -12z"/>
</g>
</svg>
